# xmcd
#
# Track frame offsets:
# 150
# 14887
# 32575
# 44425
# 62187
# 83507
# 97037
# 114000
# 128212
# 140512
#
# Disc length: 2200 seconds
#
#
# Revision: 2
# Processed by: cddbd v1.5.1PL2 Copyright (c) Steve Scherf et al.
# Submitted via: FreeRIP 2.943 
#
DISCID=8308960a
DTITLE=Ricky Skaggs - Highways and Heartachers
DYEAR=1982
DGENRE=Country
TTITLE0=Heartbroke
TTITLE1=You've Got A Lover
TTITLE2=Don't Think I'll Cry
TTITLE3=Don't Let Your Sweet Love Die
TTITLE4=Nothing Can Hurt You
TTITLE5=I Wouldn't Change You If I Could
TTITLE6=Can't You Hear Me Callin'
TTITLE7=Highway 40 Blues
TTITLE8=Let's Love The Bad Times Away
TTITLE9=One Way Rider
EXTD=
EXTT0=
EXTT1=
EXTT2=
EXTT3=
EXTT4=
EXTT5=
EXTT6=
EXTT7=
EXTT8=
EXTT9=
PLAYORDER=
